<svg xmlns="http://www.w3.org/2000/svg" viewBox="0 0 64 64"><defs><style>.cls-1,.cls-2{fill:none;}.cls-1{stroke:#f2f2f2;stroke-linecap:round;stroke-linejoin:round;}</style></defs><g id="Layer_2" data-name="Layer 2"><g id="Layer_12" data-name="Layer 12"><path class="cls-1" d="M55.21,33.44h0a23.65,23.65,0,0,1-12.66,3.14l-2.28-.09L27.6,55.92l-1.35,0-1.36,0,6.93-17.61h0c.35-.9.65-1.65.86-2.2L16,35.52,9.1,41.94l-1,.9c.24-1.09.51-2.24.51-2.24l1.89-8.25v-.06c0-.16-.23-1-.48-2.1-.5-2.41-1.25-4.72-1.63-7.13-.13-.58-.3-1.31-.44-1.92l1.26,1.18q3,3.18,6.23,6.05l17.19-.68L24.93,8l2.71.08,12.58,19.3,2.35-.09.91,0a23.74,23.74,0,0,1,11.73,3.16A1.83,1.83,0,0,1,55.21,33.44Z"/><rect class="cls-2" width="64" height="64"/></g></g></svg>