<svg xmlns="http://www.w3.org/2000/svg" viewBox="0 0 64 64"><defs><style>.cls-1,.cls-2{fill:none;}.cls-1{stroke:#f2f2f2;stroke-linecap:round;stroke-linejoin:round;}</style></defs><g id="Layer_2" data-name="Layer 2"><g id="Layer_12" data-name="Layer 12"><path class="cls-1" d="M38.67,53.43a56.36,56.36,0,0,1-11.12,1C16.88,54.46,8.2,51.92,8,48.76a.37.37,0,0,1,0-.11V37a.41.41,0,0,0,0,.11c.19,3.16,8.87,5.69,19.54,5.69a59.84,59.84,0,0,0,8.7-.6,9.35,9.35,0,0,0-.89,4A9.6,9.6,0,0,0,38.67,53.43Z"/><path class="cls-1" d="M47.1,13.81v.11c-.2,3.16-8.88,5.69-19.55,5.69S8.2,17.08,8,13.92a.41.41,0,0,1,0-.11C8,10.6,16.75,8,27.55,8S47.1,10.6,47.1,13.81Z"/><path class="cls-1" d="M47.1,13.92V25.53c-.2,3.16-8.88,5.7-19.55,5.7S8.2,28.69,8,25.53a.37.37,0,0,1,0-.11V13.92H8c.19,3.16,8.87,5.69,19.54,5.69S46.9,17.08,47.1,13.92Z"/><path class="cls-1" d="M47.1,25.42V36.51a11.51,11.51,0,0,0-1.45-.1,10.31,10.31,0,0,0-9.4,5.83,59.84,59.84,0,0,1-8.7.6C16.88,42.84,8.2,40.31,8,37.15A.41.41,0,0,1,8,37V25.42a.37.37,0,0,0,0,.11c.19,3.16,8.87,5.7,19.54,5.7s19.35-2.54,19.55-5.7Z"/><path class="cls-1" d="M56,46.19A10.05,10.05,0,0,1,45.71,56a10.53,10.53,0,0,1-7-2.6,9.58,9.58,0,0,1-3.31-7.21,9.46,9.46,0,0,1,.88-4,10.31,10.31,0,0,1,9.4-5.83A10.27,10.27,0,0,1,56,46.19Z"/><path class="cls-1" d="M48.54,43.55a4.21,4.21,0,0,1,1.19,2.92,4.56,4.56,0,0,1-9.11,0A4.25,4.25,0,0,1,42,43.32"/><path class="cls-1" d="M47.42,45.37l-.12-2.78,0-1,1,.57,2.53,1.39"/><rect class="cls-2" width="64" height="64"/></g></g></svg>