<svg xmlns="http://www.w3.org/2000/svg" viewBox="0 0 64 64"><defs><style>.cls-1,.cls-2{fill:none;}.cls-2{stroke:#f2f2f2;stroke-linecap:round;stroke-linejoin:round;}</style></defs><g id="Layer_2" data-name="Layer 2"><g id="simple_line_icons" data-name="simple line icons"><rect class="cls-1" width="64" height="64"/><path class="cls-2" d="M32,20.28c-.62-.89-4.16-1.6-8.72-1.78H18.78c-4.57.18-8.11.89-8.73,1.78l0,0,0,.07v25.1c.5-1.08,5.23-1.92,11-1.92s10.5.84,11,1.92V20.38l0-.07Z"/><path class="cls-2" d="M54,20.31l0,0c-.62-.89-4.16-1.6-8.72-1.78H40.77c-4.56.18-8.1.89-8.72,1.78l0,0,0,.07v25.1c.5-1.08,5.23-1.92,11-1.92s10.5.84,11,1.92V20.38Z"/><polyline class="cls-2" points="54 20.5 56 20.5 56 45.5 8 45.5 8 20.5 10 20.5"/></g></g></svg>