<svg xmlns="http://www.w3.org/2000/svg" viewBox="0 0 64 64"><defs><style>.cls-1,.cls-2{fill:none;}.cls-1{stroke:#f2f2f2;stroke-linecap:round;stroke-linejoin:round;}</style></defs><g id="Layer_2" data-name="Layer 2"><g id="Layer_12" data-name="Layer 12"><path class="cls-1" d="M55.63,21.83h0a27,27,0,0,1-10.76,8.54l-24,10.41-5.39,2.37-1.58-2.76v-.06l-1.1-1.79c-1.21-2.07-2.63-3.93-3.73-6L8,30.85l1.54.58q3.81,1.68,7.66,3l15.74-8.19L19.61,11l2.54-1.11L39.84,22.66,42,21.54l.84-.42A22.84,22.84,0,0,1,54.69,19C55.86,19.08,56.42,20.8,55.63,21.83Z"/><line class="cls-1" x1="13.72" y1="54.07" x2="50.26" y2="54.15"/><rect class="cls-2" width="64" height="64"/></g></g></svg>