<svg xmlns="http://www.w3.org/2000/svg" viewBox="0 0 64 64"><defs><style>.cls-1,.cls-2{fill:none;}.cls-1{stroke:#f2f2f2;stroke-linecap:round;stroke-linejoin:round;}</style></defs><g id="Layer_2" data-name="Layer 2"><g id="Layer_12" data-name="Layer 12"><path class="cls-1" d="M54,37H54a3.64,3.64,0,0,1-3.75-3.52l0-2.5a3.63,3.63,0,0,1,3.64-3.63h.34A1.8,1.8,0,0,0,55.92,25a23.72,23.72,0,0,0-5.47-9.2,1.9,1.9,0,0,0-3,.33l-.06.11a3.79,3.79,0,0,1-5,1.34l-2.27-1.22a3.47,3.47,0,0,1-1.46-4.83l.19-.33a1.76,1.76,0,0,0-1.22-2.6,26,26,0,0,0-6-.61,27,27,0,0,0-5.13.58,1.76,1.76,0,0,0-1.17,2.64l.08.12a3.48,3.48,0,0,1-1.31,4.88L21.85,17.5a3.8,3.8,0,0,1-5.09-1.21l-.19-.3a1.9,1.9,0,0,0-3-.3,23.89,23.89,0,0,0-5.53,9.17,1.79,1.79,0,0,0,1.79,2.31H10a3.64,3.64,0,0,1,3.74,3.53l0,2.49a3.63,3.63,0,0,1-3.64,3.63h-.3a1.79,1.79,0,0,0-1.73,2.32,23.77,23.77,0,0,0,5.47,9.11,1.89,1.89,0,0,0,3-.34h0a3.8,3.8,0,0,1,5.06-1.35l2.27,1.22a3.48,3.48,0,0,1,1.46,4.83l-.12.21a1.76,1.76,0,0,0,1.22,2.6,26,26,0,0,0,5.89.59,27.35,27.35,0,0,0,5-.55,1.77,1.77,0,0,0,1.21-2.65,3.49,3.49,0,0,1,1.31-4.87l2.24-1.28a3.8,3.8,0,0,1,5.09,1.2l.14.22a1.9,1.9,0,0,0,3,.3,23.94,23.94,0,0,0,5.54-9.08A1.79,1.79,0,0,0,54,37ZM32,39.12A7.28,7.28,0,0,1,24.57,32a7.44,7.44,0,0,1,14.86,0A7.28,7.28,0,0,1,32,39.12Z"/><rect class="cls-2" width="64" height="64"/></g></g></svg>