<svg xmlns="http://www.w3.org/2000/svg" viewBox="0 0 400 400"><defs><style>.cls-1,.cls-3{fill:none;}.cls-1,.cls-2{stroke:#000;stroke-linecap:round;stroke-linejoin:round;}.cls-1{stroke-width:23px;}.cls-2{stroke-width:13px;}</style></defs><g id="Layer_2" data-name="Layer 2"><g id="Layer_10" data-name="Layer 10"><path class="cls-1" d="M169.41,263.34C164.54,332.67,62.33,264.24,50,350h.26L350,349.68c-12.22-85.47-114.48-17-119.19-86.26"/><polygon class="cls-2" points="209.64 292.24 200.05 285.58 190.45 292.24 180.86 299.62 190.45 307 209.64 307 219.24 299.62 209.64 292.24"/><polyline class="cls-2" points="213.68 353.25 209.35 310.65 190.74 310.65 186.54 353.25"/><path class="cls-1" d="M272.57,149.33a137.36,137.36,0,0,1,1.09,17.36c0,56.73-34.19,102.72-76.37,102.72s-76.37-46-76.37-102.72a138.1,138.1,0,0,1,1.17-18"/><path class="cls-1" d="M118.42,135.32c-9.63-2.44-17.56-5.7-22-10A13.46,13.46,0,0,1,92,115.49c.07-15.54,12.53-32,34.19-45.25A141.45,141.45,0,0,1,197.79,50a141.41,141.41,0,0,1,71.6,20.24c21.67,13.22,34.13,29.71,34.19,45.25a13.48,13.48,0,0,1-4.44,9.81c-4.34,4.24-12.06,7.45-21.43,9.88"/><path class="cls-1" d="M197.64,158.15c-20.3,0-39.49-1.88-54-5.28-21.65-5.08-26.19-11.9-26.19-16.72s4.54-11.64,26.19-16.72c14.54-3.4,33.73-5.28,54-5.28s39.49,1.88,54,5.28c21.65,5.08,26.19,11.9,26.19,16.72s-4.54,11.64-26.19,16.72C237.13,156.27,217.94,158.15,197.64,158.15Z"/><rect class="cls-3" width="400" height="400"/><circle cx="198.63" cy="87.95" r="8.2"/><path d="M198.42,83.49l-35.55-.38,33.52,10.43,2.9.9,33.37-10.38.64-.2h-.4Z"/></g></g></svg>