<svg xmlns="http://www.w3.org/2000/svg" viewBox="0 0 400 400"><defs><style>.cls-1,.cls-2{fill:none;}.cls-1{stroke:#000;stroke-linecap:round;stroke-linejoin:round;stroke-width:23px;}</style></defs><g id="Layer_2" data-name="Layer 2"><g id="Layer_10" data-name="Layer 10"><g id="Layer_11" data-name="Layer 11"><path class="cls-1" d="M347.7,136.44v0c-18.57,24.14-41.63,42.42-67.29,53.35-4.25,1.81-136.9,59.33-150.3,65L96.43,269.66l-9.87-17.23,0-.39-6.89-11.16C72.08,228,63.18,216.31,56.3,203.05c-1.9-3.08-4.31-7-6.3-10.21,3.49,1.29,7,2.58,9.6,3.57,15.88,7,31.83,13.25,47.92,18.83l98.36-51.18c-17.54-20.12-78.35-89.88-83.32-95.56l15.87-6.94L249,141.6l13.41-7c1.74-.91,3.49-1.77,5.25-2.6a142.75,142.75,0,0,1,74.16-13.41C349.11,119.25,352.65,130,347.7,136.44Z"/><line class="cls-1" x1="85.74" y1="337.92" x2="314.13" y2="338.44"/><rect class="cls-2" x="78.82" y="54.64" width="242.37" height="290.72"/><rect class="cls-2" width="400" height="400"/></g></g></g></svg>