<svg xmlns="http://www.w3.org/2000/svg" viewBox="0 0 400 400"><defs><style>.cls-1,.cls-2,.cls-3,.cls-4{fill:none;}.cls-1,.cls-2,.cls-3{stroke:#000;stroke-linecap:round;stroke-linejoin:round;}.cls-1{stroke-width:23px;}.cls-2{stroke-width:13px;}.cls-3{stroke-width:8px;}</style></defs><g id="Layer_2" data-name="Layer 2"><g id="black_icons" data-name="black icons"><g id="Layer_11" data-name="Layer 11"><path class="cls-1" d="M242.18,334c-19.72,4.06-43.67,6.43-69.48,6.43-66.71,0-120.93-15.87-122.16-35.59a5.53,5.53,0,0,1,0-.71V231.5a5.69,5.69,0,0,0,0,.7c1.23,19.72,55.45,35.59,122.16,35.59A374,374,0,0,0,227,264a58.76,58.76,0,0,0-5.52,24.89A59.93,59.93,0,0,0,242.18,334Z"/><path class="cls-1" d="M294.6,86.31c0,.24,0,.46,0,.7-1.24,19.72-55.46,35.6-122.16,35.6S51.49,106.73,50.25,87a5.48,5.48,0,0,1,0-.7c0-20,54.71-36.3,122.2-36.3S294.6,66.26,294.6,86.31Z"/><path class="cls-1" d="M294.5,87.5v71.89c0,.24,0,.47,0,.7-1.25,19.73-55.37,35.6-122,35.6s-120.72-15.87-122-35.6c0-.23,0-.46,0-.7V87.5h0c1.25,19.73,55.37,35.6,122,35.6s120.72-15.87,122-35.6Z"/><path class="cls-1" d="M294.5,159v69.2a67.88,67.88,0,0,0-9.08-.61c-26.17,0-48.68,14.93-58.67,36.36a374.42,374.42,0,0,1-54.25,3.77c-66.6,0-120.73-15.84-122-35.53a5.69,5.69,0,0,1,0-.7V159a5.53,5.53,0,0,0,0,.71c1.23,19.69,55.36,35.54,122,35.54s120.73-15.85,122-35.54A5.53,5.53,0,0,0,294.5,159Z"/><path class="cls-1" d="M350.21,288.7c0,33.86-28.78,61.31-64.28,61.31a65.77,65.77,0,0,1-43.61-16.26,59.94,59.94,0,0,1-20.67-45.05,58.8,58.8,0,0,1,5.52-24.9c10-21.46,32.55-36.41,58.76-36.41a66.55,66.55,0,0,1,9.1.61C326.22,232.21,350.21,257.79,350.21,288.7Z"/><path class="cls-2" d="M303.58,272.18A26.37,26.37,0,0,1,311,290.47c0,15-12.74,27.15-28.46,27.15s-28.46-12.16-28.46-27.15A26.51,26.51,0,0,1,263,270.78"/><path class="cls-3" d="M296.59,283.59l-.75-17.37-.29-6.44,6.43,3.54,15.79,8.7"/><rect class="cls-4" width="400" height="400"/></g></g></g></svg>