<svg xmlns="http://www.w3.org/2000/svg" viewBox="0 0 400 400"><defs><style>.cls-1,.cls-2{fill:none;}.cls-2{stroke:#000;stroke-linecap:round;stroke-linejoin:round;stroke-width:23px;}</style></defs><g id="Layer_2" data-name="Layer 2"><g id="black_icons" data-name="black icons"><g id="Layer_11" data-name="Layer 11"><rect class="cls-1" width="400" height="400"/></g><path class="cls-2" d="M197.5,92.83V324.75c-3.18-9.94-33.3-17.72-70-17.72s-66.82,7.78-70,17.72V92.83c.06-.21.14-.38.21-.59s.08-.18.13-.25c3.92-8.25,26.44-14.85,55.51-16.49h28.31c29.07,1.64,51.59,8.24,55.5,16.49.05.07.08.16.13.25A4.63,4.63,0,0,1,197.5,92.83Z"/><path class="cls-2" d="M343.5,92.83V324.75c-3.32-9.94-34.74-17.72-73-17.72s-69.67,7.78-73,17.72V92.83a4.79,4.79,0,0,1,.23-.59c0-.09.08-.18.12-.25,4.09-8.25,27.58-14.85,57.88-16.49h29.54c30.3,1.64,53.79,8.24,57.88,16.49,0,.07.08.16.12.25A4.79,4.79,0,0,1,343.5,92.83Z"/><path class="cls-2" d="M350.5,91.5v233H50.5V91.5h7.34c-.05.07-.08.16-.13.25s-.15.38-.21.59V324.27c3.18-9.94,33.31-17.73,70-17.73s66.82,7.79,70,17.73V92.34a4.63,4.63,0,0,0-.21-.59c0-.09-.08-.18-.13-.25h.69c0,.07-.08.16-.12.25a4.79,4.79,0,0,0-.23.59V324.27c3.32-9.94,34.74-17.73,73-17.73s69.69,7.79,73,17.73V92.34a4.79,4.79,0,0,0-.23-.59c0-.09-.08-.18-.12-.25Z"/></g></g></svg>