<svg xmlns="http://www.w3.org/2000/svg" viewBox="0 0 400 400"><defs><style>.cls-1,.cls-2,.cls-3,.cls-4{fill:none;}.cls-1,.cls-2,.cls-3{stroke:#000;stroke-linecap:round;stroke-linejoin:round;}.cls-1{stroke-width:23px;}.cls-2{stroke-width:13px;}.cls-3{stroke-width:8px;}</style></defs><g id="Layer_2" data-name="Layer 2"><g id="Layer_10" data-name="Layer 10"><g id="Layer_11" data-name="Layer 11"><path class="cls-1" d="M241.68,333.94C222,338,198,340.37,172.2,340.37c-66.71,0-120.93-15.87-122.16-35.6a5.48,5.48,0,0,1,0-.7V231.49a5.43,5.43,0,0,0,0,.69c1.23,19.73,55.45,35.6,122.16,35.6A375.39,375.39,0,0,0,226.53,264,58.76,58.76,0,0,0,221,288.89,59.93,59.93,0,0,0,241.68,333.94Z"/><path class="cls-1" d="M294.39,86.3q0,.35,0,.69c-1.25,19.73-55.46,35.6-122.16,35.6S51.28,106.72,50,87q0-.34,0-.69c0-20,54.71-36.3,122.2-36.3S294.39,66.25,294.39,86.3Z"/><path class="cls-1" d="M294.39,87v71.9c0,.24,0,.46,0,.7-1.25,19.72-55.46,35.6-122.16,35.6S51.28,179.31,50,159.59c0-.24,0-.46,0-.7V87h0c1.25,19.73,55.46,35.6,122.17,35.6S293.11,106.72,294.36,87Z"/><path class="cls-1" d="M294.39,158.88v69.31a68.06,68.06,0,0,0-9.1-.61c-26.21,0-48.75,15-58.76,36.42a375.39,375.39,0,0,1-54.33,3.78c-66.71,0-120.93-15.87-122.16-35.6a5.43,5.43,0,0,1,0-.69V158.88a5.53,5.53,0,0,0,0,.71c1.23,19.72,55.45,35.6,122.16,35.6s120.92-15.88,122.15-35.6A5.53,5.53,0,0,0,294.39,158.88Z"/><path class="cls-1" d="M350,288.69c0,33.86-28.78,61.31-64.28,61.31a65.8,65.8,0,0,1-43.62-16.27,59.91,59.91,0,0,1-20.66-45,58.62,58.62,0,0,1,5.52-24.9c10-21.46,32.55-36.42,58.76-36.42a66.4,66.4,0,0,1,9.09.62C326,232.2,350,257.78,350,288.69Z"/><path class="cls-2" d="M303.37,272.17a26.33,26.33,0,0,1,7.43,18.29c0,15-12.74,27.14-28.46,27.14s-28.46-12.15-28.46-27.14a26.5,26.5,0,0,1,8.87-19.69"/><path class="cls-3" d="M296.38,283.58l-.76-17.37-.28-6.44,6.43,3.54L317.56,272"/><rect class="cls-4" width="400" height="400"/></g></g></g></svg>