<svg xmlns="http://www.w3.org/2000/svg" viewBox="0 0 400 400"><defs><style>.cls-1,.cls-2{fill:none;}.cls-1{stroke:#000;stroke-linecap:round;stroke-linejoin:round;stroke-width:23px;}</style></defs><g id="Layer_2" data-name="Layer 2"><g id="Layer_10" data-name="Layer 10"><path class="cls-1" d="M337.69,231.07h-.33c-12.74.17-23.21-9.69-23.39-22l-.23-15.6c-.19-12.35,10-22.5,22.73-22.68l2.14,0c7.73-.11,13.12-7.31,10.88-14.41a148.38,148.38,0,0,0-34.2-57.5,11.85,11.85,0,0,0-18.65,2.07l-.38.64C290.05,112.2,275.91,116,264.67,110l-14.2-7.61c-11.24-6-15.31-19.56-9.1-30.23l1.2-2.06c3.78-6.49-.06-14.58-7.61-16.25a164.24,164.24,0,0,0-69.42-.17,11,11,0,0,0-7.26,16.48l.48.79c6.53,10.49,2.86,24.13-8.2,30.45l-14,8c-11,6.33-25.31,3-31.84-7.54l-1.17-1.89a11.88,11.88,0,0,0-18.46-1.82,148.57,148.57,0,0,0-34.58,57.29c-2.35,7.22,3.31,14.55,11.2,14.44h.62c12.74-.18,23.21,9.69,23.39,22l.23,15.6c.18,12.35-10,22.5-22.73,22.68l-1.85,0c-7.76.11-13.17,7.36-10.86,14.47a148.34,148.34,0,0,0,34.24,56.93,11.85,11.85,0,0,0,18.62-2.11l0-.08c6.21-10.67,20.36-14.44,31.59-8.42l14.21,7.61c11.23,6,15.31,19.56,9.1,30.23l-.74,1.27c-3.79,6.5.06,14.61,7.63,16.25a164.13,164.13,0,0,0,68.13.24c7.77-1.63,11.66-10,7.58-16.55-6.53-10.49-2.85-24.13,8.2-30.45l14-8c11.06-6.32,25.31-2.94,31.84,7.55l.83,1.34a11.88,11.88,0,0,0,18.44,1.85,148.69,148.69,0,0,0,34.64-56.7C351.27,238.34,345.6,231,337.69,231.07ZM200,244.52c-25.63,0-46.41-19.93-46.41-44.52s20.78-44.52,46.41-44.52,46.41,19.93,46.41,44.52S225.63,244.52,200,244.52Z"/><g id="Layer_11" data-name="Layer 11"><rect class="cls-2" width="400" height="400"/></g></g></g></svg>