<svg xmlns="http://www.w3.org/2000/svg" xmlns:xlink="http://www.w3.org/1999/xlink" viewBox="0 0 152 148"><defs><style>.cls-1{isolation:isolate;}.cls-2{fill:#26a0da;mix-blend-mode:lighten;}.cls-3{fill:#f2f2f2;}.cls-4{fill:url(#linear-gradient);}.cls-5{mix-blend-mode:multiply;}.cls-6{fill:#fff;}.cls-7{fill:none;}</style><linearGradient id="linear-gradient" x1="108.9" y1="89.35" x2="41.74" y2="107.23" gradientUnits="userSpaceOnUse"><stop offset="0" stop-color="#f2f2f2"/><stop offset="0.01" stop-color="#f2f2f2" stop-opacity="0.98"/><stop offset="0.23" stop-color="#f6f6f6" stop-opacity="0.69"/><stop offset="0.43" stop-color="#f9f9f9" stop-opacity="0.44"/><stop offset="0.61" stop-color="#fcfcfc" stop-opacity="0.25"/><stop offset="0.78" stop-color="#fefefe" stop-opacity="0.11"/><stop offset="0.91" stop-color="#fff" stop-opacity="0.03"/><stop offset="1" stop-color="#fff" stop-opacity="0"/></linearGradient></defs><g class="cls-1"><g id="Layer_2" data-name="Layer 2"><g id="Layer_7" data-name="Layer 7"><ellipse class="cls-2" cx="76" cy="74" rx="66.67" ry="65.85"/><path class="cls-3" d="M30.55,64.51c0-27.09,20-49,45.09-49.81l1.32,0,1.32,0c31.21.74,56.16,26.86,56.17,59.15,0,30.64-22.47,55.72-51.43,58.84,22.83-3.19,40.38-24,40.38-49.33a54,54,0,0,0-.83-9.42c-.13-.72-.27-1.43-.43-2.14s-.31-1.37-.49-2c-.09-.34-.18-.68-.28-1h0C115.56,48.32,97.91,33.53,77,33.52S38.39,48.31,32.57,68.74h0c-.09.33-.19.67-.27,1-.18.68-.35,1.36-.5,2s-.3,1.42-.43,2.14A54.13,54.13,0,0,1,30.55,64.51Z"/><path class="cls-4" d="M34.09,92.4c8.38,13.26,22.44,21.93,38.51,21.95a44.28,44.28,0,0,0,30-11.83,47,47,0,0,0,4.69-20.31,45.55,45.55,0,0,0-.71-8.25c-3.71,20.19-20.25,35.57-40.18,35.52C53.25,109.48,41.59,102.81,34.09,92.4Z"/><path class="cls-3" d="M119.45,83.67c0,25.32-17.55,46.14-40.36,49.33a57.66,57.66,0,0,1-6,.32A55.11,55.11,0,0,1,67,133c-29-3.12-51.42-28.2-51.43-58.83,0-32.29,25-58.42,56.16-59.16A45,45,0,0,0,39.38,30.45,50.67,50.67,0,0,0,28.14,52a54,54,0,0,0-.71,22.23,51.51,51.51,0,0,0,7.1,18.45C42.87,105.93,57,114.6,73,114.6a44.37,44.37,0,0,0,30.07-11.81,50.65,50.65,0,0,0,15.52-28.54A54,54,0,0,1,119.45,83.67Z"/><g class="cls-5"><path class="cls-6" d="M119.45,83.67c0,25.32-17.55,46.14-40.36,49.33a57.66,57.66,0,0,1-6,.32A55.11,55.11,0,0,1,67,133c-29-3.12-51.42-28.2-51.43-58.83,0-32.29,25-58.42,56.16-59.16A45,45,0,0,0,39.38,30.45,50.67,50.67,0,0,0,28.14,52a54,54,0,0,0-.71,22.23,51.51,51.51,0,0,0,7.1,18.45C42.87,105.93,57,114.6,73,114.6a44.37,44.37,0,0,0,30.07-11.81,50.65,50.65,0,0,0,15.52-28.54A54,54,0,0,1,119.45,83.67Z"/></g><path class="cls-6" d="M92.37,47.88h0a15.28,15.28,0,0,1,6,4l.86,1L111,51.48l.54.53.55.54-8.8,3.1h0l-1.1.39,6.33,7,4.91.62.69.09-1,.54-3.59,2h0l-.54.9c-.64,1-1.14,2.09-1.82,3l-.49.82c0-.33-.07-.65-.09-.9-.06-1.53-.18-3-.35-4.55l-7-6.7c-.79,2.05-3.53,9.15-3.76,9.73l-1-1.12L96.15,56l-1-.92-.36-.36a15,15,0,0,1-3.51-5.79A.81.81,0,0,1,92.37,47.88Z"/><rect class="cls-7" width="152" height="148"/><line class="cls-7" y1="123.33" x2="152" y2="123.33"/><line class="cls-7" y1="98.67" x2="152" y2="98.67"/><line class="cls-7" y1="74" x2="152" y2="74"/><line class="cls-7" y1="49.33" x2="152" y2="49.33"/><line class="cls-7" y1="24.67" x2="152" y2="24.67"/><line class="cls-7" x1="126.67" x2="126.67" y2="148"/><line class="cls-7" x1="101.33" x2="101.33" y2="148"/><line class="cls-7" x1="76" x2="76" y2="148"/><line class="cls-7" x1="50.67" x2="50.67" y2="148"/><line class="cls-7" x1="25.33" x2="25.33" y2="148"/></g></g></g></svg>