<svg xmlns="http://www.w3.org/2000/svg" xmlns:xlink="http://www.w3.org/1999/xlink" viewBox="0 0 161.54 161.27"><defs><style>.cls-1{isolation:isolate;}.cls-2{fill:url(#linear-gradient);}.cls-3,.cls-6{mix-blend-mode:multiply;}.cls-4{fill:url(#linear-gradient-2);}.cls-5{fill:url(#linear-gradient-3);}.cls-6{fill:url(#linear-gradient-4);}.cls-7{fill:#26a0da;}</style><linearGradient id="linear-gradient" x1="68.31" y1="37.76" x2="139.02" y2="123.31" gradientUnits="userSpaceOnUse"><stop offset="0" stop-color="#26a0da"/><stop offset="1" stop-color="#093b53"/></linearGradient><linearGradient id="linear-gradient-2" x1="120.11" y1="76.53" x2="42.5" y2="134.67" gradientUnits="userSpaceOnUse"><stop offset="0" stop-color="#f2f2f2"/><stop offset="1" stop-color="#26a0da"/></linearGradient><linearGradient id="linear-gradient-3" x1="90.19" y1="120.84" x2="26.57" y2="40.21" xlink:href="#linear-gradient"/><linearGradient id="linear-gradient-4" x1="102.7" y1="55.84" x2="133.01" y2="55.84" gradientTransform="translate(-0.99 8.5) rotate(-1.72)" xlink:href="#linear-gradient-2"/></defs><g class="cls-1"><g id="Layer_2" data-name="Layer 2"><g id="Layer_7" data-name="Layer 7"><path class="cls-2" d="M20.18,67.78C20.2,30.93,47.42,1.06,81.53,0l1.79,0,1.8,0c42.46,1,76.4,36.55,76.42,80.47,0,41.68-30.58,75.8-70,80.05,31.06-4.34,54.95-32.67,54.94-67.11a72.92,72.92,0,0,0-1.13-12.81c-.17-1-.37-2-.58-2.92s-.43-1.86-.67-2.78c-.12-.46-.25-.91-.38-1.37h0c-7.9-27.79-31.92-47.92-60.41-47.93S30.85,45.74,22.93,73.55h0c-.13.46-.25.91-.37,1.37-.24.92-.47,1.85-.68,2.78s-.4,1.94-.58,2.92A73.27,73.27,0,0,1,20.18,67.78Z"/><g class="cls-3"><path class="cls-4" d="M25.19,105.7c11.38,18,30.49,29.78,52.31,29.8a60.09,60.09,0,0,0,40.81-16.07,63.92,63.92,0,0,0,6.37-27.58,62.43,62.43,0,0,0-1-11.21c-5,27.43-27.51,48.32-54.58,48.26C51.22,128.89,35.38,119.83,25.19,105.7Z"/></g><path class="cls-5" d="M141.15,93.83c0,34.4-23.85,62.68-54.83,67a77.1,77.1,0,0,1-16.45,0C30.53,156.59,0,122.52,0,80.91,0,37.05,33.91,1.56,76.3.56,59,1.07,43.47,9,32.37,21.54A68.88,68.88,0,0,0,17.11,50.83a73.15,73.15,0,0,0-1,30.21,69.79,69.79,0,0,0,9.65,25c11.32,18,30.51,29.75,52.3,29.76a60.32,60.32,0,0,0,40.85-16A68.71,68.71,0,0,0,140,81,72.52,72.52,0,0,1,141.15,93.83Z"/><path class="cls-6" d="M104.35,45.22h0a20.47,20.47,0,0,1,8.22,5.5L113.74,52l15.85-1.91.74.73.74.72-11.94,4.22h0l-1.49.53,8.6,9.47,6.66.84.94.12-1.33.74-4.87,2.72,0,0c0,.1-.35.59-.73,1.22-.86,1.37-1.54,2.84-2.47,4.14l-.67,1.12-.11-1.23q-.14-3.1-.48-6.17l-9.48-9.11c-1.07,2.78-4.8,12.43-5.1,13.22l-1.41-1.53,2.35-15.69-1.29-1.24-.49-.49a20.46,20.46,0,0,1-4.77-7.87A1.1,1.1,0,0,1,104.35,45.22Z"/><path class="cls-7" d="M104.35,45.22h0a20.47,20.47,0,0,1,8.22,5.5L113.74,52l15.85-1.91.74.73.74.72-11.94,4.22h0l-1.49.53,8.6,9.47,6.66.84.94.12-1.33.74-4.87,2.72,0,0c0,.1-.35.59-.73,1.22-.86,1.37-1.54,2.84-2.47,4.14l-.67,1.12-.11-1.23q-.14-3.1-.48-6.17l-9.48-9.11c-1.07,2.78-4.8,12.43-5.1,13.22l-1.41-1.53,2.35-15.69-1.29-1.24-.49-.49a20.46,20.46,0,0,1-4.77-7.87A1.1,1.1,0,0,1,104.35,45.22Z"/></g></g></g></svg>