<svg xmlns="http://www.w3.org/2000/svg" xmlns:xlink="http://www.w3.org/1999/xlink" viewBox="0 0 161.52 161.15"><defs><style>.cls-1{isolation:isolate;}.cls-2{fill:#26a0da;}.cls-3,.cls-5{mix-blend-mode:multiply;}.cls-4{fill:url(#linear-gradient);}.cls-5{fill:url(#linear-gradient-2);}</style><linearGradient id="linear-gradient" x1="120.11" y1="76.41" x2="42.5" y2="134.55" gradientUnits="userSpaceOnUse"><stop offset="0" stop-color="#f2f2f2"/><stop offset="1" stop-color="#26a0da"/></linearGradient><linearGradient id="linear-gradient-2" x1="102.83" y1="88.81" x2="133.14" y2="88.81" gradientTransform="translate(-2.11 -24.58) rotate(-1.72)" xlink:href="#linear-gradient"/></defs><g class="cls-1"><g id="Layer_2" data-name="Layer 2"><g id="Layer_6" data-name="Layer 6"><path class="cls-2" d="M20.38,67.68C20.4,30.88,47.58,1.06,81.63,0l1.8,0,1.79,0c42.39,1,76.28,36.49,76.3,80.35,0,41.61-30.53,75.69-69.87,79.93,31-4.33,54.86-32.62,54.86-67a72.61,72.61,0,0,0-1.13-12.79c-.17-1-.37-2-.58-2.92s-.43-1.86-.67-2.77c-.12-.46-.25-.91-.38-1.37h0c-7.89-27.75-31.87-47.84-60.32-47.86S31,45.67,23.13,73.44h0c-.13.45-.26.91-.38,1.37-.24.91-.46,1.84-.67,2.77s-.41,1.94-.58,2.92A73,73,0,0,1,20.38,67.68Z"/><g class="cls-3"><path class="cls-4" d="M25.19,105.57c11.38,18,30.49,29.79,52.31,29.81a60.14,60.14,0,0,0,40.81-16.07,63.92,63.92,0,0,0,6.37-27.58,62.43,62.43,0,0,0-1-11.21c-5,27.43-27.51,48.31-54.58,48.25C51.22,128.77,35.38,119.71,25.19,105.57Z"/></g><path class="cls-2" d="M141.15,93.7c0,34.41-23.85,62.69-54.83,67a77.1,77.1,0,0,1-16.45,0C30.53,156.47,0,122.4,0,80.79,0,36.93,33.91,1.44,76.3.43,59,1,43.47,8.92,32.37,21.42A68.88,68.88,0,0,0,17.11,50.71a73.1,73.1,0,0,0-1,30.2A69.77,69.77,0,0,0,25.79,106c11.32,18,30.51,29.75,52.3,29.76a60.37,60.37,0,0,0,40.85-16A68.74,68.74,0,0,0,140,80.91,72.69,72.69,0,0,1,141.15,93.7Z"/><path class="cls-5" d="M104.35,45.09h0a20.59,20.59,0,0,1,8.22,5.51l1.17,1.29L129.59,50l.74.73.74.72-11.94,4.22h0l-1.5.53,8.6,9.47,6.66.84.94.12-1.33.74-4.87,2.72,0,0-.73,1.22c-.86,1.37-1.54,2.84-2.47,4.14l-.67,1.12-.11-1.23c-.09-2.08-.25-4.13-.48-6.17l-9.48-9.11c-1.07,2.78-4.8,12.43-5.1,13.22l-1.41-1.53,2.35-15.69-1.29-1.24-.49-.49a20.53,20.53,0,0,1-4.77-7.87A1.1,1.1,0,0,1,104.35,45.09Z"/><path class="cls-2" d="M104.35,45.09h0a20.59,20.59,0,0,1,8.22,5.51l1.17,1.29L129.59,50l.74.73.74.72-11.94,4.22h0l-1.5.53,8.6,9.47,6.66.84.94.12-1.33.74-4.87,2.72,0,0-.73,1.22c-.86,1.37-1.54,2.84-2.47,4.14l-.67,1.12-.11-1.23c-.09-2.08-.25-4.13-.48-6.17l-9.48-9.11c-1.07,2.78-4.8,12.43-5.1,13.22l-1.41-1.53,2.35-15.69-1.29-1.24-.49-.49a20.53,20.53,0,0,1-4.77-7.87A1.1,1.1,0,0,1,104.35,45.09Z"/></g></g></g></svg>