<svg xmlns="http://www.w3.org/2000/svg" xmlns:xlink="http://www.w3.org/1999/xlink" viewBox="0 0 134 134"><defs><style>.cls-1{isolation:isolate;}.cls-2{fill:url(#linear-gradient);}.cls-3{fill:#f2f2f2;}.cls-4{mix-blend-mode:multiply;}.cls-5,.cls-7{fill:#f4f2f7;}.cls-6{fill:url(#linear-gradient-2);}.cls-7{stroke:#f2f2f7;stroke-linecap:round;stroke-linejoin:round;}</style><linearGradient id="linear-gradient" x1="67" y1="133.03" x2="67" y2="1.93" gradientUnits="userSpaceOnUse"><stop offset="0" stop-color="#64d2ff"/><stop offset="1" stop-color="#0a84ff"/></linearGradient><linearGradient id="linear-gradient-2" x1="101" y1="82.12" x2="33.84" y2="100" gradientUnits="userSpaceOnUse"><stop offset="0" stop-color="#f4f2f7"/><stop offset="0.03" stop-color="#f4f3f7" stop-opacity="0.96"/><stop offset="0.24" stop-color="#f8f6fa" stop-opacity="0.67"/><stop offset="0.44" stop-color="#faf9fc" stop-opacity="0.43"/><stop offset="0.62" stop-color="#fcfcfd" stop-opacity="0.25"/><stop offset="0.78" stop-color="#fefefe" stop-opacity="0.11"/><stop offset="0.91" stop-color="#fff" stop-opacity="0.03"/><stop offset="1" stop-color="#fff" stop-opacity="0"/></linearGradient></defs><g class="cls-1"><g id="Layer_2" data-name="Layer 2"><g id="Layer_7" data-name="Layer 7"><rect class="cls-2" width="134" height="134"/><path class="cls-3" d="M22.05,57.27C22.07,30.16,42.1,8.2,67.18,7.43l1.32,0,1.32,0C101.05,8.17,126,34.31,126,66.62c0,30.65-22.49,55.75-51.47,58.88,22.84-3.19,40.41-24,40.41-49.37a54,54,0,0,0-.83-9.42c-.13-.72-.27-1.43-.43-2.14s-.32-1.37-.49-2c-.09-.34-.18-.67-.28-1h0C107.13,41.07,89.46,26.27,68.5,26.26S29.9,41.06,24.08,61.51h0c-.1.34-.19.67-.28,1-.17.68-.34,1.36-.49,2S23,66,22.88,66.71A54.25,54.25,0,0,1,22.05,57.27Z"/><g class="cls-4"><path class="cls-5" d="M22.05,57.27C22.07,30.16,42.1,8.2,67.18,7.43l1.32,0,1.32,0C101.05,8.17,126,34.31,126,66.62c0,30.65-22.49,55.75-51.47,58.88,22.84-3.19,40.41-24,40.41-49.37a54,54,0,0,0-.83-9.42c-.13-.72-.27-1.43-.43-2.14s-.32-1.37-.49-2c-.09-.34-.18-.67-.28-1h0C107.13,41.07,89.46,26.27,68.5,26.26S29.9,41.06,24.08,61.51h0c-.1.34-.19.67-.28,1-.17.68-.34,1.36-.49,2S23,66,22.88,66.71A54.25,54.25,0,0,1,22.05,57.27Z"/></g><path class="cls-6" d="M26.18,85.17c8.38,13.26,22.45,21.93,38.52,21.94a44.22,44.22,0,0,0,30-11.82A46.92,46.92,0,0,0,99.42,75a44.67,44.67,0,0,0-.7-8.25C95,86.92,78.47,102.3,58.54,102.25,45.35,102.25,33.69,95.58,26.18,85.17Z"/><path class="cls-3" d="M111.55,76.44c0,25.32-17.56,46.14-40.37,49.32a57.66,57.66,0,0,1-6.05.32,55.07,55.07,0,0,1-6-.32c-29-3.12-51.42-28.2-51.44-58.83,0-32.29,25-58.42,56.17-59.16A45,45,0,0,0,31.47,23.22,50.8,50.8,0,0,0,20.23,44.78,54,54,0,0,0,19.52,67a51.52,51.52,0,0,0,7.11,18.45c8.33,13.22,22.46,21.89,38.5,21.9A44.42,44.42,0,0,0,95.2,95.56,50.53,50.53,0,0,0,110.72,67,54,54,0,0,1,111.55,76.44Z"/><g class="cls-4"><path class="cls-5" d="M111.55,76.44c0,25.32-17.56,46.14-40.37,49.32a57.66,57.66,0,0,1-6.05.32,55.07,55.07,0,0,1-6-.32c-29-3.12-51.42-28.2-51.44-58.83,0-32.29,25-58.42,56.17-59.16A45,45,0,0,0,31.47,23.22,50.8,50.8,0,0,0,20.23,44.78,54,54,0,0,0,19.52,67a51.52,51.52,0,0,0,7.11,18.45c8.33,13.22,22.46,21.89,38.5,21.9A44.42,44.42,0,0,0,95.2,95.56,50.53,50.53,0,0,0,110.72,67,54,54,0,0,1,111.55,76.44Z"/></g><path class="cls-7" d="M84.77,42.27h0A14,14,0,0,1,90.36,46l.8.88,10.78-1.3.5.49.51.49-8.13,2.88h0l-1,.36c2.51,2.75,5,5.56,5.85,6.44l4.53.57.64.08-.9.5-3.32,1.85,0,0-.5.83c-.59.93-1,1.93-1.68,2.81l-.45.76c0-.3-.06-.6-.08-.83q-.09-2.12-.33-4.2l-6.45-6.2c-.73,1.9-3.26,8.46-3.47,9l-1-1,1.6-10.67-.88-.85-.34-.33a14.13,14.13,0,0,1-3.24-5.35A.76.76,0,0,1,84.77,42.27Z"/></g></g></g></svg>