<svg xmlns="http://www.w3.org/2000/svg" xmlns:xlink="http://www.w3.org/1999/xlink" viewBox="0 0 64 64"><defs><style>.cls-1{isolation:isolate;}.cls-2{fill:#26a0da;mix-blend-mode:lighten;}.cls-3{fill:#f2f2f2;}.cls-4{fill:url(#linear-gradient);}.cls-5{mix-blend-mode:multiply;}.cls-6{fill:#fff;}</style><linearGradient id="linear-gradient" x1="46.99" y1="38.69" x2="17.52" y2="46.53" gradientUnits="userSpaceOnUse"><stop offset="0" stop-color="#f2f2f2"/><stop offset="0.01" stop-color="#f2f2f2" stop-opacity="0.98"/><stop offset="0.23" stop-color="#f6f6f6" stop-opacity="0.69"/><stop offset="0.43" stop-color="#f9f9f9" stop-opacity="0.44"/><stop offset="0.61" stop-color="#fcfcfc" stop-opacity="0.25"/><stop offset="0.78" stop-color="#fefefe" stop-opacity="0.11"/><stop offset="0.91" stop-color="#fff" stop-opacity="0.03"/><stop offset="1" stop-color="#fff" stop-opacity="0"/></linearGradient></defs><g class="cls-1"><g id="Layer_2" data-name="Layer 2"><g id="Layer_7" data-name="Layer 7"><circle class="cls-2" cx="32" cy="32" r="32"/><path class="cls-3" d="M13.15,27.57c0-12,8.78-21.81,19.78-22.15h1.16c13.68.33,24.63,12,24.64,26.31,0,13.62-9.86,24.78-22.57,26.17,10-1.42,17.72-10.68,17.72-21.94a23.92,23.92,0,0,0-.37-4.19c0-.32-.12-.64-.18-.95s-.14-.61-.22-.91L53,29.46h0c-2.55-9.09-10.3-15.67-19.48-15.67S16.59,20.37,14,29.46h0c0,.15-.09.3-.13.45-.07.3-.15.6-.21.9s-.13.64-.19,1A24.13,24.13,0,0,1,13.15,27.57Z"/><path class="cls-4" d="M14.15,40A20,20,0,0,0,31,49.73,19.28,19.28,0,0,0,44.2,44.47a21.26,21.26,0,0,0,2.06-9A20.86,20.86,0,0,0,46,31.78c-1.63,9-8.88,15.8-17.62,15.78A17.39,17.39,0,0,1,14.15,40Z"/><path class="cls-3" d="M51.57,36.09c0,11.26-7.69,20.51-17.69,21.92a23.57,23.57,0,0,1-5.31,0C15.88,56.63,6,45.48,6,31.86,6,17.51,17,5.9,30.64,5.57a19.61,19.61,0,0,0-14.17,6.87A22.7,22.7,0,0,0,11.54,22a24.57,24.57,0,0,0-.31,9.89,23,23,0,0,0,3.12,8.19,19.92,19.92,0,0,0,16.87,9.74,19.34,19.34,0,0,0,13.19-5.25,22.65,22.65,0,0,0,6.8-12.68A23.9,23.9,0,0,1,51.57,36.09Z"/><g class="cls-5"><path class="cls-6" d="M51.57,36.09c0,11.26-7.69,20.51-17.69,21.92a23.57,23.57,0,0,1-5.31,0C15.88,56.63,6,45.48,6,31.86,6,17.51,17,5.9,30.64,5.57a19.61,19.61,0,0,0-14.17,6.87A22.7,22.7,0,0,0,11.54,22a24.57,24.57,0,0,0-.31,9.89,23,23,0,0,0,3.12,8.19,19.92,19.92,0,0,0,16.87,9.74,19.34,19.34,0,0,0,13.19-5.25,22.65,22.65,0,0,0,6.8-12.68A23.9,23.9,0,0,1,51.57,36.09Z"/></g><path class="cls-3" d="M39.7,20.19h0A6.52,6.52,0,0,1,42.35,22l.38.42,5.11-.63.24.24.24.24-3.85,1.38h0l-.49.17,2.78,3.1,2.15.28.3,0-.43.25-1.57.89h0l-.24.4c-.28.45-.5.93-.8,1.36-.06.11-.14.25-.21.36,0-.14,0-.29,0-.4,0-.68-.08-1.35-.15-2l-3.06-3-1.65,4.33-.45-.5.76-5.14-.42-.4-.16-.16a6.78,6.78,0,0,1-1.54-2.58A.36.36,0,0,1,39.7,20.19Z"/></g></g></g></svg>