<svg xmlns="http://www.w3.org/2000/svg" xmlns:xlink="http://www.w3.org/1999/xlink" viewBox="0 0 275 74"><defs><style>.cls-1{isolation:isolate;}.cls-2{fill:#f2f2f2;}.cls-3{fill:url(#linear-gradient);}.cls-4,.cls-7{mix-blend-mode:multiply;}.cls-5{fill:url(#linear-gradient-2);}.cls-6{fill:url(#linear-gradient-3);}.cls-7{fill:url(#linear-gradient-4);}.cls-8,.cls-9{fill:#26a0da;}.cls-9{font-size:28.6px;stroke:#26a0da;stroke-miterlimit:10;font-family:SegoeUI, Segoe UI;}</style><linearGradient id="linear-gradient" x1="33.04" y1="19.87" x2="61.09" y2="53.8" gradientUnits="userSpaceOnUse"><stop offset="0" stop-color="#26a0da"/><stop offset="1" stop-color="#093b53"/></linearGradient><linearGradient id="linear-gradient-2" x1="53.6" y1="35.23" x2="22.56" y2="58.48" gradientUnits="userSpaceOnUse"><stop offset="0" stop-color="#f2f2f2"/><stop offset="1" stop-color="#26a0da"/></linearGradient><linearGradient id="linear-gradient-3" x1="41.64" y1="52.95" x2="16.19" y2="20.71" xlink:href="#linear-gradient"/><linearGradient id="linear-gradient-4" x1="31.1" y1="22.55" x2="43.22" y2="22.55" gradientTransform="translate(15.13 7.51) rotate(-1.72)" xlink:href="#linear-gradient-2"/></defs><g class="cls-1"><g id="Layer_2" data-name="Layer 2"><g id="Layer_7" data-name="Layer 7"><rect class="cls-2" width="275" height="74" rx="6.62"/><path class="cls-3" d="M14,31.78C14,17.15,24.76,5.31,38.29,4.89h1.42C56.55,5.29,70,19.39,70,36.82,70,53.35,57.9,66.89,42.27,68.57c12.32-1.72,21.79-13,21.79-26.62a28.23,28.23,0,0,0-.45-5.08c-.06-.39-.14-.78-.23-1.16s-.17-.74-.26-1.1L63,34.06h0c-3.14-11-12.67-19-24-19s-20.82,8-24,19h0l-.15.55c-.09.36-.18.73-.26,1.1s-.16.77-.23,1.16A28.43,28.43,0,0,1,14,31.78Z"/><g class="cls-4"><path class="cls-5" d="M15.64,46.9A24.76,24.76,0,0,0,36.56,58.81a24,24,0,0,0,16.32-6.42,25.69,25.69,0,0,0,2.55-11A25.23,25.23,0,0,0,55,36.88c-2,11-11,19.32-21.82,19.29A21.65,21.65,0,0,1,15.64,46.9Z"/></g><path class="cls-6" d="M62,42.15C62,55.91,52.48,67.22,40.09,69a31.92,31.92,0,0,1-6.58,0C17.78,67.25,5.58,53.63,5.57,37c0-17.54,13.56-31.73,30.51-32.13a24.45,24.45,0,0,0-17.57,8.39A27.61,27.61,0,0,0,12.41,25a28.76,28.76,0,0,0-.84,7A29.73,29.73,0,0,0,12,37a27.9,27.9,0,0,0,3.86,10A24.76,24.76,0,0,0,36.8,59a24.06,24.06,0,0,0,16.33-6.41A27.48,27.48,0,0,0,61.56,37,28.76,28.76,0,0,1,62,42.15Z"/><path class="cls-7" d="M47.3,22.71h0a8.17,8.17,0,0,1,3.28,2.2l.47.52,6.34-.76.3.28.29.29-4.77,1.69h0l-.6.21c1.47,1.63,3,3.27,3.44,3.79l2.66.34.38,0-.53.3-2,1.09h0l-.29.49c-.35.54-.62,1.13-1,1.65-.08.14-.18.31-.27.45,0-.18,0-.36,0-.49,0-.83-.1-1.66-.19-2.47L51,28.69,49,34l-.57-.61.94-6.27-.51-.5-.2-.2a8.31,8.31,0,0,1-1.91-3.14A.45.45,0,0,1,47.3,22.71Z"/><path class="cls-8" d="M47.3,22.71h0a8.17,8.17,0,0,1,3.28,2.2l.47.52,6.34-.76.3.28.29.29-4.77,1.69h0l-.6.21c1.47,1.63,3,3.27,3.44,3.79l2.66.34.38,0-.53.3-2,1.09h0l-.29.49c-.35.54-.62,1.13-1,1.65-.08.14-.18.31-.27.45,0-.18,0-.36,0-.49,0-.83-.1-1.66-.19-2.47L51,28.69,49,34l-.57-.61.94-6.27-.51-.5-.2-.2a8.31,8.31,0,0,1-1.91-3.14A.45.45,0,0,1,47.3,22.71Z"/><text class="cls-9" transform="translate(80.21 49.18)">Open Pilot Log</text></g></g></g></svg>