<svg xmlns="http://www.w3.org/2000/svg" viewBox="0 0 400 400"><defs><style>.cls-1,.cls-2{fill:none;}.cls-1{stroke:#f2f2f2;stroke-linecap:round;stroke-linejoin:round;stroke-width:23px;}</style></defs><g id="Layer_2" data-name="Layer 2"><g id="Layer_12" data-name="Layer 12"><path class="cls-1" d="M345.06,209a0,0,0,0,1,0,0c-24.73,14-51.84,20.74-79.13,19.65l-14.25-.57L172.51,349.48l-8.46.26-8.48.26c2.51-6.37,29.63-75.23,43.34-110.06h0l5.41-13.75L99.8,222,56.86,262.15l-6,5.62c1.56-6.8,3.21-14,3.21-14l11.79-51.55s0-.18.09-.37c-.24-1-1.45-6.32-3-13.15-3.08-15-7.82-29.48-10.17-44.54-.83-3.63-1.89-8.21-2.75-12,2.86,2.68,5.71,5.35,7.86,7.39,12.66,13.25,25.64,25.8,38.94,37.82L204.27,173,155.82,50l16.93.52L251.4,171.15l14.66-.58c1.89-.08,3.8-.11,5.69-.11a148.26,148.26,0,0,1,73.31,19.73C351.65,193.91,351.65,205.25,345.06,209Z"/><rect class="cls-2" width="400" height="400"/></g></g></svg>