<svg xmlns="http://www.w3.org/2000/svg" viewBox="0 0 400 400"><defs><style>.cls-1,.cls-2{fill:none;}.cls-2{stroke:#f2f2f2;stroke-linecap:round;stroke-linejoin:round;stroke-width:23px;}</style></defs><g id="Layer_2" data-name="Layer 2"><g id="light_icons" data-name="light icons"><rect class="cls-1" width="400" height="400"/><path class="cls-2" d="M197,92.7V324.63c-3.18-9.94-33.3-17.73-70-17.73s-66.82,7.79-70,17.73V92.7c.06-.2.14-.38.21-.59s.08-.17.13-.25C61.26,83.62,83.78,77,112.85,75.37h28.31c29.07,1.64,51.59,8.25,55.5,16.49.05.08.08.16.13.25A5.25,5.25,0,0,1,197,92.7Z"/><path class="cls-2" d="M343,92.7V324.63c-3.32-9.94-34.74-17.73-73-17.73s-69.67,7.79-73,17.73V92.7a5.5,5.5,0,0,1,.23-.59l.12-.25c4.09-8.24,27.58-14.85,57.88-16.49h29.54c30.3,1.64,53.79,8.25,57.88,16.49l.12.25A5.5,5.5,0,0,1,343,92.7Z"/><path class="cls-2" d="M350,91.37v233H50v-233h7.34c-.05.08-.08.17-.13.25s-.15.39-.21.59V324.14c3.18-9.94,33.31-17.73,70-17.73s66.82,7.79,70,17.73V92.21a5.25,5.25,0,0,0-.21-.59c0-.08-.08-.17-.13-.25h.69l-.12.25a5.5,5.5,0,0,0-.23.59V324.14c3.32-9.94,34.74-17.73,73-17.73s69.69,7.79,73,17.73V92.21a5.5,5.5,0,0,0-.23-.59l-.12-.25Z"/></g></g></svg>