<svg xmlns="http://www.w3.org/2000/svg" viewBox="0 0 400 400"><defs><style>.cls-1,.cls-2{fill:none;}.cls-2{stroke:#f2f2f2;stroke-linecap:round;stroke-linejoin:round;stroke-width:23px;}</style></defs><g id="Layer_2" data-name="Layer 2"><g id="Layer_12" data-name="Layer 12"><rect class="cls-1" width="400" height="400"/><path class="cls-2" d="M197.08,125.42v161c-3.18-6.9-33.32-12.31-70-12.31s-66.85,5.41-70,12.31v-161l.22-.41a1,1,0,0,1,.12-.17c3.92-5.73,26.46-10.31,55.54-11.45h28.33c29.08,1.14,51.61,5.72,55.52,11.45a.7.7,0,0,1,.13.17A2.65,2.65,0,0,1,197.08,125.42Z"/><path class="cls-2" d="M343,125.42v161c-3.32-6.9-34.69-12.31-72.9-12.31s-69.58,5.41-72.89,12.31v-161a4.1,4.1,0,0,1,.22-.41l.12-.17c4.09-5.73,27.55-10.31,57.8-11.45h29.5c30.26,1.14,53.71,5.72,57.8,11.45l.12.17A4.23,4.23,0,0,1,343,125.42Z"/><path class="cls-2" d="M350,124.84V286.61H50V124.84h7.35a1,1,0,0,0-.12.17l-.22.41v161c3.19-6.9,33.33-12.31,70-12.31s66.85,5.41,70,12.31v-161a2.65,2.65,0,0,0-.21-.41.7.7,0,0,0-.13-.17h.83l-.12.17a4.1,4.1,0,0,0-.22.41v161c3.31-6.9,34.68-12.31,72.89-12.31s69.58,5.41,72.9,12.31v-161a4.23,4.23,0,0,0-.23-.41l-.12-.17Z"/></g></g></svg>