<svg xmlns="http://www.w3.org/2000/svg" viewBox="0 0 400 400"><defs><style>.cls-1,.cls-2,.cls-3,.cls-4{fill:none;}.cls-1,.cls-2,.cls-3{stroke:#f2f2f2;stroke-linecap:round;stroke-linejoin:round;}.cls-1{stroke-width:23px;}.cls-2{stroke-width:13px;}.cls-3{stroke-width:8px;}</style></defs><g id="Layer_2" data-name="Layer 2"><g id="light_icons" data-name="light icons"><path class="cls-1" d="M241.18,334.08c-19.72,4.06-43.67,6.43-69.48,6.43-66.71,0-120.93-15.87-122.16-35.59a5.74,5.74,0,0,1,0-.71V231.63a5.43,5.43,0,0,0,0,.69c1.23,19.73,55.45,35.6,122.16,35.6A374,374,0,0,0,226,264.14,58.76,58.76,0,0,0,220.51,289,59.93,59.93,0,0,0,241.18,334.08Z"/><path class="cls-1" d="M294,86.44a5.48,5.48,0,0,1,0,.7c-1.24,19.72-55.46,35.6-122.16,35.6S50.91,106.86,49.67,87.14c0-.24,0-.46,0-.7,0-20,54.7-36.3,122.19-36.3S294,66.39,294,86.44Z"/><path class="cls-1" d="M293.5,87.5v71.89c0,.24,0,.47,0,.7-1.25,19.73-55.37,35.6-122,35.6s-120.72-15.87-122-35.6c0-.23,0-.46,0-.7V87.5h0c1.25,19.73,55.37,35.6,122,35.6s120.72-15.87,122-35.6Z"/><path class="cls-1" d="M293.5,159.11v69.2a67.88,67.88,0,0,0-9.08-.61c-26.17,0-48.68,14.93-58.67,36.36a374.42,374.42,0,0,1-54.25,3.77c-66.6,0-120.73-15.84-122-35.54a5.43,5.43,0,0,1,0-.69V159.11a5.63,5.63,0,0,0,0,.71c1.23,19.69,55.36,35.54,122,35.54s120.73-15.85,122-35.54A5.63,5.63,0,0,0,293.5,159.11Z"/><path class="cls-1" d="M349.64,288.83c0,33.86-28.78,61.31-64.29,61.31a65.77,65.77,0,0,1-43.61-16.26,59.94,59.94,0,0,1-20.67-45.05,58.8,58.8,0,0,1,5.52-24.9c10-21.46,32.55-36.41,58.76-36.41a66.44,66.44,0,0,1,9.1.61C325.65,232.34,349.64,257.92,349.64,288.83Z"/><path class="cls-2" d="M303,272.31a26.39,26.39,0,0,1,7.43,18.29c0,15-12.75,27.15-28.46,27.15s-28.46-12.16-28.46-27.15a26.48,26.48,0,0,1,8.87-19.69"/><path class="cls-3" d="M296,283.72l-.76-17.37-.28-6.44,6.42,3.54,15.79,8.7"/><rect class="cls-4" width="400" height="400"/></g></g></svg>