<svg xmlns="http://www.w3.org/2000/svg" viewBox="0 0 400 400"><defs><style>.cls-1,.cls-3{fill:none;}.cls-1,.cls-2{stroke:#f2f2f2;stroke-linecap:round;stroke-linejoin:round;}.cls-1{stroke-width:23px;}.cls-2,.cls-4{fill:#f2f2f2;}.cls-2{stroke-width:13px;}</style></defs><g id="Layer_2" data-name="Layer 2"><g id="Layer_12" data-name="Layer 12"><path class="cls-1" d="M169.41,261.71c-4.87,69.34-107.08.91-119.41,86.61h.26L350,348.06c-12.22-85.48-114.48-17-119.19-86.27"/><polygon class="cls-2" points="209.64 290.61 200.05 283.95 190.45 290.61 180.86 297.99 190.45 305.37 209.64 305.37 219.24 297.99 209.64 290.61"/><polyline class="cls-2" points="213.68 351.63 209.35 309.02 190.74 309.02 186.54 351.63"/><path class="cls-1" d="M272.57,147.7a137.4,137.4,0,0,1,1.09,17.37c0,56.73-34.19,102.72-76.37,102.72s-76.37-46-76.37-102.72a138.26,138.26,0,0,1,1.17-18"/><path class="cls-1" d="M118.42,133.7c-9.63-2.45-17.56-5.7-22-10A13.44,13.44,0,0,1,92,113.86c.07-15.54,12.53-32,34.19-45.25a141.45,141.45,0,0,1,71.61-20.24,141.41,141.41,0,0,1,71.6,20.24c21.67,13.22,34.13,29.71,34.19,45.25a13.46,13.46,0,0,1-4.44,9.81c-4.34,4.24-12.06,7.45-21.43,9.88"/><path class="cls-1" d="M197.64,156.52c-20.3,0-39.49-1.87-54-5.28-21.65-5.08-26.19-11.89-26.19-16.72s4.54-11.64,26.19-16.71c14.54-3.41,33.73-5.29,54-5.29s39.49,1.88,54,5.29c21.65,5.07,26.19,11.89,26.19,16.71s-4.54,11.64-26.19,16.72C237.13,154.65,217.94,156.52,197.64,156.52Z"/><rect class="cls-3" width="400" height="400"/><circle class="cls-4" cx="200.29" cy="84.94" r="8.2"/><path class="cls-4" d="M200.08,80.48l-35.55-.38,33.53,10.43,2.89.9,33.38-10.38.64-.2h-.41Z"/></g></g></svg>