<svg xmlns="http://www.w3.org/2000/svg" viewBox="0 0 49 49"><defs><style>.cls-1{fill:none;stroke:#000;stroke-linecap:round;stroke-linejoin:round;}</style></defs><g id="Layer_2" data-name="Layer 2"><g id="simple_line_icons" data-name="simple line icons"><path class="cls-1" d="M31.17,45.93a56.36,56.36,0,0,1-11.12,1C9.38,47,.7,44.42.51,41.26a.37.37,0,0,1,0-.11V29.54a.41.41,0,0,0,0,.11c.19,3.16,8.87,5.69,19.54,5.69a59.84,59.84,0,0,0,8.7-.6,9.35,9.35,0,0,0-.89,4A9.6,9.6,0,0,0,31.17,45.93Z"/><path class="cls-1" d="M39.6,6.31v.11c-.2,3.16-8.88,5.69-19.55,5.69S.7,9.58.51,6.42a.41.41,0,0,1,0-.11C.5,3.1,9.25.5,20.05.5S39.6,3.1,39.6,6.31Z"/><path class="cls-1" d="M39.6,6.42V18c-.2,3.16-8.88,5.7-19.55,5.7S.7,21.19.51,18a.37.37,0,0,1,0-.11V6.42h0c.19,3.16,8.87,5.69,19.54,5.69S39.4,9.58,39.6,6.42Z"/><path class="cls-1" d="M39.6,17.92V29a11.51,11.51,0,0,0-1.45-.1,10.31,10.31,0,0,0-9.4,5.83,59.84,59.84,0,0,1-8.7.6C9.38,35.34.7,32.81.51,29.65a.41.41,0,0,1,0-.11V17.92a.37.37,0,0,0,0,.11c.19,3.16,8.87,5.7,19.54,5.7S39.4,21.19,39.6,18Z"/><path class="cls-1" d="M48.5,38.69A10.05,10.05,0,0,1,38.21,48.5a10.53,10.53,0,0,1-7-2.6,9.58,9.58,0,0,1-3.31-7.21,9.46,9.46,0,0,1,.88-4,10.31,10.31,0,0,1,9.4-5.83A10.27,10.27,0,0,1,48.5,38.69Z"/><path class="cls-1" d="M41,36.05A4.21,4.21,0,0,1,42.23,39a4.56,4.56,0,0,1-9.11,0,4.25,4.25,0,0,1,1.42-3.15"/><path class="cls-1" d="M39.92,37.87l-.12-2.78,0-1,1,.57L43.31,36"/></g></g></svg>