<svg xmlns="http://www.w3.org/2000/svg" viewBox="0 0 64 64"><defs><style>.cls-1,.cls-2{fill:none;}.cls-1{stroke:#000;stroke-linecap:round;stroke-linejoin:round;}</style></defs><g id="Layer_2" data-name="Layer 2"><g id="simple_line_icons" data-name="simple line icons"><polyline class="cls-1" points="34.19 55.61 33.5 48.79 30.52 48.79 29.85 55.61"/><path class="cls-1" d="M19,21.39a8.08,8.08,0,0,1-3.52-1.6,2.18,2.18,0,0,1-.71-1.57c0-2.49,2-5.13,5.47-7.24A22.6,22.6,0,0,1,31.65,7.74,22.59,22.59,0,0,1,43.1,11c3.47,2.11,5.46,4.75,5.47,7.24a2.14,2.14,0,0,1-.71,1.57,7.89,7.89,0,0,1-3.43,1.58"/><path class="cls-1" d="M31.62,25A39.92,39.92,0,0,1,23,24.2c-3.47-.81-4.19-1.9-4.19-2.68s.72-1.86,4.19-2.67A39.25,39.25,0,0,1,31.62,18a39.41,39.41,0,0,1,8.65.85c3.46.81,4.19,1.9,4.19,2.67s-.73,1.87-4.19,2.68A40.09,40.09,0,0,1,31.62,25Z"/><path d="M32.15,12.77a.94.94,0,1,0,.94.94.93.93,0,0,0-.94-.94Z"/><path class="cls-1" d="M32,12.86l-5.69-.06,5.37,1.67.46.14L37.49,13l.1,0h-.06Z"/><path class="cls-1" d="M27.11,41.87C26.33,53,10,42,8,55.73H8l48,0C54.05,42,37.68,53,36.93,41.89"/><polygon class="cls-1" points="33.54 46.5 32.01 45.43 30.47 46.5 28.94 47.68 30.47 48.86 33.54 48.86 35.08 47.68 33.54 46.5"/><path class="cls-1" d="M43.61,23.63a21.17,21.17,0,0,1,.18,2.78c0,9.08-5.48,16.44-12.22,16.44S19.35,35.49,19.35,26.41a22.61,22.61,0,0,1,.18-2.88"/><rect class="cls-2" width="64" height="64"/></g></g></svg>