<svg xmlns="http://www.w3.org/2000/svg" viewBox="0 0 326.46 320.61"><defs><style>.cls-1,.cls-2,.cls-3,.cls-4{fill:none;}.cls-1,.cls-2,.cls-3{stroke:#000;stroke-linecap:round;stroke-linejoin:round;}.cls-1{stroke-width:23px;}.cls-2{stroke-width:7px;}.cls-3{stroke-width:0.25px;}</style></defs><g id="Layer_2" data-name="Layer 2"><g id="Layer_8" data-name="Layer 8"><path class="cls-1" d="M203.41,278.87c-16.26,3.51-36,5.56-57.29,5.56-55,0-99.7-13.72-100.72-30.77,0-.21,0-.4,0-.61V190.31c0,.2,0,.39,0,.6,1,17.05,45.72,30.77,100.72,30.77a294.45,294.45,0,0,0,44.8-3.27,53.06,53.06,0,0,0,12.49,60.46Z"/><path class="cls-1" d="M246.87,64.81c0,.2,0,.39,0,.6-1,17-45.73,30.77-100.72,30.77S46.42,82.46,45.39,65.41c0-.21,0-.4,0-.6,0-17.33,45.1-31.38,100.75-31.38S246.87,47.48,246.87,64.81Z"/><path class="cls-1" d="M246.87,65.41v62.15c0,.2,0,.39,0,.6-1,17.05-45.73,30.77-100.72,30.77s-99.7-13.72-100.73-30.77c0-.21,0-.4,0-.6V65.41h0c1,17,45.73,30.77,100.73,30.77s99.69-13.72,100.72-30.77Z"/><path class="cls-1" d="M246.87,127.55v59.91a53.05,53.05,0,0,0-56,30.95,294.45,294.45,0,0,1-44.8,3.27c-55,0-99.7-13.72-100.72-30.77,0-.21,0-.4,0-.6V127.55c0,.21,0,.4,0,.61,1,17.05,45.72,30.77,100.72,30.77s99.7-13.72,100.72-30.77C246.86,128,246.87,127.76,246.87,127.55Z"/><path class="cls-1" d="M292.56,239.78a53,53,0,1,1-45.5-52.47A53,53,0,0,1,292.56,239.78Z"/><path class="cls-2" d="M244.33,217.86a24.85,24.85,0,1,1-11.3.4"/><line class="cls-2" x1="241.18" y1="217.69" x2="246.35" y2="225.6"/><line class="cls-2" x1="241.18" y1="217.69" x2="250.47" y2="212.4"/><rect class="cls-3" x="0.13" y="0.13" height="1"/><line class="cls-3" x1="0.13" y1="0.96" x2="0.13" y2="0.96"/><line class="cls-3" x1="0.13" y1="0.79" x2="0.13" y2="0.79"/><line class="cls-3" x1="0.13" y1="0.63" x2="0.13" y2="0.63"/><line class="cls-3" x1="0.13" y1="0.46" x2="0.13" y2="0.46"/><line class="cls-3" x1="0.13" y1="0.29" x2="0.13" y2="0.29"/><line class="cls-3" x1="0.13" y1="0.13" x2="0.13" y2="1.13"/><line class="cls-3" x1="0.13" y1="0.13" x2="0.13" y2="1.13"/><line class="cls-3" x1="0.13" y1="0.13" x2="0.13" y2="1.13"/><line class="cls-3" x1="0.13" y1="0.13" x2="0.13" y2="1.13"/><line class="cls-3" x1="0.13" y1="0.13" x2="0.13" y2="1.13"/><rect class="cls-4" x="11.46" y="5.61" width="315" height="315"/><line class="cls-4" x1="11.46" y1="268.11" x2="326.46" y2="268.11"/><line class="cls-4" x1="11.46" y1="215.61" x2="326.46" y2="215.61"/><line class="cls-4" x1="11.46" y1="163.11" x2="326.46" y2="163.11"/><line class="cls-4" x1="11.46" y1="110.61" x2="326.46" y2="110.61"/><line class="cls-4" x1="11.46" y1="58.11" x2="326.46" y2="58.11"/><line class="cls-4" x1="273.96" y1="5.61" x2="273.96" y2="320.61"/><line class="cls-4" x1="221.46" y1="5.61" x2="221.46" y2="320.61"/><line class="cls-4" x1="168.96" y1="5.61" x2="168.96" y2="320.61"/><line class="cls-4" x1="116.46" y1="5.61" x2="116.46" y2="320.61"/><line class="cls-4" x1="63.96" y1="5.61" x2="63.96" y2="320.61"/></g></g></svg>