<svg xmlns="http://www.w3.org/2000/svg" xmlns:xlink="http://www.w3.org/1999/xlink" viewBox="0 0 134.44 134.44"><defs><style>.cls-1{isolation:isolate;}.cls-2{fill:url(#linear-gradient);}.cls-3{fill:#f2f2f2;}.cls-4{mix-blend-mode:multiply;}.cls-5,.cls-7{fill:#f4f2f7;}.cls-6{fill:url(#linear-gradient-2);}.cls-7{stroke:#f2f2f7;stroke-linecap:round;stroke-linejoin:round;}</style><linearGradient id="linear-gradient" x1="67.22" y1="133.47" x2="67.22" y2="1.94" gradientUnits="userSpaceOnUse"><stop offset="0" stop-color="#64d2ff"/><stop offset="1" stop-color="#0a84ff"/></linearGradient><linearGradient id="linear-gradient-2" x1="101.13" y1="82.57" x2="33.97" y2="100.45" gradientUnits="userSpaceOnUse"><stop offset="0" stop-color="#f4f2f7"/><stop offset="0.03" stop-color="#f4f3f7" stop-opacity="0.96"/><stop offset="0.24" stop-color="#f8f6fa" stop-opacity="0.67"/><stop offset="0.44" stop-color="#faf9fc" stop-opacity="0.43"/><stop offset="0.62" stop-color="#fcfcfd" stop-opacity="0.25"/><stop offset="0.78" stop-color="#fefefe" stop-opacity="0.11"/><stop offset="0.91" stop-color="#fff" stop-opacity="0.03"/><stop offset="1" stop-color="#fff" stop-opacity="0"/></linearGradient></defs><g class="cls-1"><g id="Layer_2" data-name="Layer 2"><g id="Layer_7" data-name="Layer 7"><rect class="cls-2" width="134.44" height="134.44"/><path class="cls-3" d="M22.77,57.73c0-27.09,20-49,45.09-49.81h2.65c31.2.74,56.15,26.87,56.17,59.15,0,30.64-22.48,55.72-51.44,58.84,22.83-3.19,40.39-24,40.38-49.33a53.82,53.82,0,0,0-.83-9.41c-.12-.72-.27-1.44-.43-2.15s-.31-1.37-.49-2c-.09-.34-.18-.67-.28-1h0c-5.81-20.43-23.46-35.22-44.4-35.23S30.61,41.53,24.8,62h0c-.1.33-.19.67-.28,1-.18.67-.35,1.35-.5,2s-.3,1.43-.42,2.15A53.29,53.29,0,0,1,22.77,57.73Z"/><g class="cls-4"><path class="cls-5" d="M22.77,57.73c0-27.09,20-49,45.09-49.81h2.65c31.2.74,56.15,26.87,56.17,59.15,0,30.64-22.48,55.72-51.44,58.84,22.83-3.19,40.39-24,40.38-49.33a53.82,53.82,0,0,0-.83-9.41c-.12-.72-.27-1.44-.43-2.15s-.31-1.37-.49-2c-.09-.34-.18-.67-.28-1h0c-5.81-20.43-23.46-35.22-44.4-35.23S30.61,41.53,24.8,62h0c-.1.33-.19.67-.28,1-.18.67-.35,1.35-.5,2s-.3,1.43-.42,2.15A53.29,53.29,0,0,1,22.77,57.73Z"/></g><path class="cls-6" d="M26.31,85.63c8.38,13.26,22.44,21.92,38.51,21.94a44.26,44.26,0,0,0,30-11.83,47,47,0,0,0,4.69-20.31,46.47,46.47,0,0,0-.7-8.25c-3.72,20.2-20.26,35.57-40.18,35.52C45.47,102.7,33.81,96,26.31,85.63Z"/><path class="cls-3" d="M111.67,76.89c0,25.33-17.55,46.14-40.36,49.33a57.45,57.45,0,0,1-12.11,0C30.24,123.1,7.79,98,7.77,67.38c0-32.29,25-58.42,56.16-59.15A45,45,0,0,0,31.6,23.68,50.69,50.69,0,0,0,20.36,45.24,53.23,53.23,0,0,0,18.82,58a54.13,54.13,0,0,0,.83,9.43,51.27,51.27,0,0,0,7.11,18.45c8.33,13.23,22.46,21.9,38.5,21.9A44.37,44.37,0,0,0,95.33,96a50.65,50.65,0,0,0,15.52-28.54A53.07,53.07,0,0,1,111.67,76.89Z"/><g class="cls-4"><path class="cls-5" d="M111.67,76.89c0,25.33-17.55,46.14-40.36,49.33a57.45,57.45,0,0,1-12.11,0C30.24,123.1,7.79,98,7.77,67.38c0-32.29,25-58.42,56.16-59.15A45,45,0,0,0,31.6,23.68,50.69,50.69,0,0,0,20.36,45.24,53.23,53.23,0,0,0,18.82,58a54.13,54.13,0,0,0,.83,9.43,51.27,51.27,0,0,0,7.11,18.45c8.33,13.23,22.46,21.9,38.5,21.9A44.37,44.37,0,0,0,95.33,96a50.65,50.65,0,0,0,15.52-28.54A53.07,53.07,0,0,1,111.67,76.89Z"/></g><path class="cls-7" d="M85.9,42.73h0a14,14,0,0,1,5.59,3.74l.79.88,10.79-1.3.5.49.5.5L96,49.91h0l-1,.36,5.84,6.44,4.54.57.64.08-.91.5-3.31,1.86h0l-.5.83c-.59.93-1,1.93-1.68,2.82l-.46.76c0-.31-.06-.61-.08-.84,0-1.41-.17-2.81-.32-4.2l-6.45-6.19-3.47,9-1-1,1.59-10.67-.88-.85L88.18,49a13.88,13.88,0,0,1-3.24-5.35A.75.75,0,0,1,85.9,42.73Z"/></g></g></g></svg>