<svg xmlns="http://www.w3.org/2000/svg" xmlns:xlink="http://www.w3.org/1999/xlink" viewBox="0 0 240.64 95.03"><defs><style>.cls-1{isolation:isolate;}.cls-2,.cls-7{mix-blend-mode:multiply;}.cls-3,.cls-7{fill:#292e49;}.cls-4{fill:url(#linear-gradient);}.cls-5{fill:url(#linear-gradient-2);}.cls-6{fill:url(#linear-gradient-3);}.cls-8{fill:url(#linear-gradient-4);}.cls-9{fill:url(#linear-gradient-5);}</style><linearGradient id="linear-gradient" x1="1640.34" y1="426.17" x2="1661.27" y2="449.53" gradientTransform="translate(1680.32 464.07) rotate(180)" gradientUnits="userSpaceOnUse"><stop offset="0" stop-color="#314755"/><stop offset="1" stop-color="#26a0da"/></linearGradient><linearGradient id="linear-gradient-2" x1="1640.34" y1="426.17" x2="1661.27" y2="449.53" gradientTransform="translate(1680.32 464.07) rotate(180)" gradientUnits="userSpaceOnUse"><stop offset="0" stop-color="#26a0da" stop-opacity="0"/><stop offset="1" stop-color="#314755"/></linearGradient><linearGradient id="linear-gradient-3" x1="21.86" y1="27.2" x2="21.75" y2="42.51" gradientUnits="userSpaceOnUse"><stop offset="0" stop-color="#314755"/><stop offset="1" stop-color="#26a0da" stop-opacity="0"/></linearGradient><linearGradient id="linear-gradient-4" x1="20.55" y1="5.65" x2="20.23" y2="49.38" gradientTransform="matrix(1, 0, 0, 1, 0, 0)" xlink:href="#linear-gradient"/><linearGradient id="linear-gradient-5" x1="20.55" y1="5.65" x2="20.23" y2="49.38" xlink:href="#linear-gradient-3"/></defs><g class="cls-1"><g id="Layer_2" data-name="Layer 2"><g id="Layer_6" data-name="Layer 6"><g class="cls-2"><path class="cls-3" d="M62.56,37V49.6h-3V23.42c0-3.26,0-5.58-.08-7h3c0,.84.1,2.72.11,4.09a7.82,7.82,0,0,1,7.59-4.56c5.24,0,8.81,4.21,8.81,11.9,0,8.07-4.2,12.67-9.71,12.67C65.68,40.49,63.64,39,62.56,37Zm13.29-9c0-5.93-2.41-9.34-6.57-9.34-5.29,0-6.86,3.82-6.86,9.73,0,5.48,1,9.48,6.59,9.48C73.25,37.82,75.85,34.22,75.85,28Z" transform="translate(0 -5.65)"/><path class="cls-3" d="M95.27,28.74C95.23,34.18,97.6,38,102,38a6,6,0,0,0,6-4.34h3c-.64,2.58-2.77,7-9.1,7-7.36,0-9.64-6.1-9.64-12.43,0-5.8,2.83-12.22,9.84-12.22,7.24,0,9.3,5.85,9.3,11.07,0,.06,0,1.68,0,1.75Zm13.1-2.38c-.14-4.54-2-7.87-6.41-7.87-5.13,0-6.34,4.78-6.59,7.87Z" transform="translate(0 -5.65)"/><path class="cls-3" d="M126.22,23.83c0-5,0-6.43-.09-7.44h2.94c.06.47.16,3,.12,4a7.26,7.26,0,0,1,7.13-4.44c4.17,0,7.57,2.22,7.57,9V40.1h-3V25.28c0-3.74-1.36-6.62-5.11-6.62-4.77,0-6.57,3.7-6.57,9V40.1h-3Z" transform="translate(0 -5.65)"/></g><g class="cls-2"><path class="cls-3" d="M4.16,58.16H14.73c6,0,10.21,3.15,10.21,8.78,0,6.27-4.33,9.29-10.73,9.29H7.29V90.8H4.16ZM7.29,73.55h6.84c4.5,0,7.59-1.51,7.59-6.55,0-4.21-3.07-6.19-7.59-6.19H7.29Z" transform="translate(0 -5.65)"/><path class="cls-3" d="M39.56,56.45h3v4.77h-3Zm0,10.63h3V90.8h-3Z" transform="translate(0 -5.65)"/><path class="cls-3" d="M59.16,90.8V56.45h3V90.8Z" transform="translate(0 -5.65)"/><path class="cls-3" d="M97.34,78.53c0,6.85-2.9,12.66-10.31,12.66-7,0-10-6-10-12.56,0-6.35,3.44-12,10.24-12C93.69,66.61,97.34,71.54,97.34,78.53Zm-17.15.11c0,5.61,2.41,9.94,7.08,9.94,4.94,0,6.92-4.21,6.92-10,0-5.32-2.35-9.32-7-9.32S80.19,73.16,80.19,78.64Z" transform="translate(0 -5.65)"/><path class="cls-3" d="M109.15,67.08h4V60h3v7.07h5v2.56h-5V85.49c0,2.12.54,3,2.6,3a11.31,11.31,0,0,0,2-.18v2.39a9.23,9.23,0,0,1-2.84.39c-3,0-4.73-1.12-4.73-4.87V69.64h-4Z" transform="translate(0 -5.65)"/><path class="cls-3" d="M156.34,58.16h3.09V88.08h16.12L175,90.8H156.34Z" transform="translate(0 -5.65)"/><path class="cls-3" d="M207.9,78.53c0,6.85-2.89,12.66-10.3,12.66-7,0-10-6-10-12.56,0-6.35,3.44-12,10.25-12C204.25,66.61,207.9,71.54,207.9,78.53Zm-17.15.11c0,5.61,2.41,9.94,7.08,9.94,4.94,0,6.93-4.21,6.93-10,0-5.32-2.35-9.32-7-9.32S190.75,73.16,190.75,78.64Z" transform="translate(0 -5.65)"/><path class="cls-3" d="M240.55,89.2c0,7.42-3,11.47-9.77,11.47-6.65,0-8.69-3.55-9.05-6.87h3c.57,2.93,2.93,4.32,6.14,4.32,5.52,0,6.8-3.72,6.8-9.22V86.77c-1.23,2.81-3.23,4.2-7.2,4.2-5.54,0-9.09-4.73-9.09-12.08,0-7.74,4.16-12.28,9.67-12.28,3.75,0,5.87,1.6,6.52,3.65,0-1.18.11-2.6.16-3.18h2.94c0,1.1-.09,3.57-.09,6.77ZM224.47,78.87c0,6,2.56,9.38,6.6,9.38,4.91,0,6.64-3.12,6.64-9.51s-1.58-9.41-6.42-9.41C226.92,69.33,224.47,73.1,224.47,78.87Z" transform="translate(0 -5.65)"/></g><g class="cls-2"><path class="cls-4" d="M6.09,23.74c-.19-10.45,7.24-18,17.59-18.09h1.08c12.92.24,22.18,9.13,22.08,21.64.07,11.84-8.19,20.5-20.15,21.51,9.4-1.09,16-8.36,15.84-18a20.41,20.41,0,0,0-.34-3.53c0-.27-.11-.54-.17-.8s-.12-.51-.19-.77-.07-.25-.11-.37h0A17.78,17.78,0,0,0,24.27,12.54,17.4,17.4,0,0,0,6.9,25.36h0c0,.13-.07.25-.1.38s-.14.52-.19.78-.12.54-.17.81A22.17,22.17,0,0,1,6.09,23.74Z" transform="translate(0 -5.65)"/></g><g class="cls-2"><path class="cls-5" d="M6.09,23.74c-.19-10.45,7.24-18,17.59-18.09h1.08c12.92.24,22.18,9.13,22.08,21.64.07,11.84-8.19,20.5-20.15,21.51,9.4-1.09,16-8.36,15.84-18a20.41,20.41,0,0,0-.34-3.53c0-.27-.11-.54-.17-.8s-.12-.51-.19-.77-.07-.25-.11-.37h0A17.78,17.78,0,0,0,24.27,12.54,17.4,17.4,0,0,0,6.9,25.36h0c0,.13-.07.25-.1.38s-.14.52-.19.78-.12.54-.17.81A22.17,22.17,0,0,1,6.09,23.74Z" transform="translate(0 -5.65)"/></g><g class="cls-2"><path class="cls-6" d="M7.32,34.35a17.22,17.22,0,0,0,15.12,8,17.28,17.28,0,0,0,11.85-4.24,24.07,24.07,0,0,0,1.93-7.68,23.86,23.86,0,0,0,.09-3.14C33.75,35.18,28.21,40.63,20,40.62A15.13,15.13,0,0,1,7.32,34.35Z" transform="translate(0 -5.65)"/></g><path class="cls-7" d="M29.92,17.06h0a6.16,6.16,0,0,1,2.42,1.73l.35.4,4.79-.43.21.22.22.23-3.64,1.16h0l-.45.15,2.5,2.93,2,.31.28,0-.4.22-1.5.77h0l-.23.36c-.27.4-.49.84-.78,1.22l-.21.33c0-.13,0-.27,0-.37q0-.93-.09-1.86l-2.78-2.83c-.34.83-1.55,3.7-1.65,3.93l-.41-.47.85-4.7L31,20l-.14-.15a6.22,6.22,0,0,1-1.37-2.41A.34.34,0,0,1,29.92,17.06Z" transform="translate(0 -5.65)"/><g class="cls-2"><path class="cls-8" d="M40.75,31c.16,9.76-6.28,17-15.66,17.95-.81.06-1.64.09-2.47.08S21,49,20.15,48.93C8.2,47.92-.07,39.26,0,27.41-.1,14.91,9.16,6,22.08,5.78a18.65,18.65,0,0,0-13,5.46,17,17,0,0,0-4.25,7.89,19.2,19.2,0,0,0-.53,4.78,19.67,19.67,0,0,0,.34,3.54A18.53,18.53,0,0,0,7.39,34.3a18,18,0,0,0,15.18,7.91,18,18,0,0,0,11.88-4.13A18,18,0,0,0,40.4,27.45,20,20,0,0,1,40.75,31Z" transform="translate(0 -5.65)"/></g><g class="cls-2"><path class="cls-9" d="M40.75,31c.16,9.76-6.28,17-15.66,17.95-.81.06-1.64.09-2.47.08S21,49,20.15,48.93C8.2,47.92-.07,39.26,0,27.41-.1,14.91,9.16,6,22.08,5.78a18.65,18.65,0,0,0-13,5.46,17,17,0,0,0-4.25,7.89,19.2,19.2,0,0,0-.53,4.78,19.67,19.67,0,0,0,.34,3.54A18.53,18.53,0,0,0,7.39,34.3a18,18,0,0,0,15.18,7.91,18,18,0,0,0,11.88-4.13A18,18,0,0,0,40.4,27.45,20,20,0,0,1,40.75,31Z" transform="translate(0 -5.65)"/></g></g></g></g></svg>